<svg version="1.2" xmlns="http://www.w3.org/2000/svg" viewBox="0 0 1191 1684" width="1191" height="1684">
	<title>ePrijava za upis učenika u srednju školu-pdf</title>
	<defs>
		<clipPath clipPathUnits="userSpaceOnUse" id="cp1">
			<path d="m0 0h1191v1684h-1191z"/>
		</clipPath>
		<clipPath clipPathUnits="userSpaceOnUse" id="cp2">
			<path d="m104.16 831.28h561.6v55.2h-561.6z"/>
		</clipPath>
		<clipPath clipPathUnits="userSpaceOnUse" id="cp3">
			<path d="m666.72 831.28h476.64v55.2h-476.64z"/>
		</clipPath>
		<clipPath clipPathUnits="userSpaceOnUse" id="cp4">
			<path d="m104.16 1397.2h1039.2v82.8h-1039.2z"/>
		</clipPath>
		<clipPath clipPathUnits="userSpaceOnUse" id="cp5">
			<path d="m104.16 1397.2h1039.2v82.8h-1039.2z"/>
		</clipPath>
		<clipPath clipPathUnits="userSpaceOnUse" id="cp6">
			<path d="m104.16 1480.96h1039.2v118.32h-1039.2z"/>
		</clipPath>
		<clipPath clipPathUnits="userSpaceOnUse" id="cp7">
			<path d="m104.16 1480.96h1039.2v118.32h-1039.2z"/>
		</clipPath>
	</defs>
	<style>
		tspan { white-space:pre } 
		.t0 { font-size: 20px;fill: #000000;font-family: "Times New Roman" } 
		.t1 { font-size: 24px;fill: #000000;font-family: "Times New Roman" } 
		.t2 { font-size: 24px;line-height: 32px;fill: #000000;font-family: "Times New Roman" } 
		.t3 { font-size: 20px;line-height: 32px;fill: #000000;font-family: "Times New Roman" } 
		.t4 { font-size: 28px;line-height: 32px;fill: #000000;font-family: "Times New Roman" } 
		.t5 { font-size: 24px;line-height: 34px;fill: #000000;font-family: "Times New Roman" } 
		.t6 { font-size: 24px;line-height: 34px;fill: #000000;font-family: "Arial" } 
		.t7 { font-size: 24px;line-height: 40px;fill: #000000;font-family: "Times New Roman" } 
		.t8 { font-size: 24px;line-height: 40px;fill: #000000;font-family: "Arial" } 
		.t9 { font-size: 20px;line-height: 40px;fill: #000000;font-family: "Times New Roman" } 
		.t10 { font-size: 20px;line-height: 23px;fill: #000000;font-family: "Times New Roman" } 
		.t11 { font-size: 24px;line-height: 23px;fill: #000000;font-family: "Times New Roman" } 
		.s12 { fill: #000000 } 
		.t13 { font-size: 24px;line-height: 28px;fill: #000000;font-family: "Times New Roman" } 
		.t14 { font-size: 24px;line-height: 36px;fill: #000000;font-family: "Times New Roman" } 
		.t15 { font-size: 22px;line-height: 36px;fill: #000000;font-family: "Times New Roman" } 
		.t16 { font-size: 22px;line-height: 36px;fill: #000000;font-family: "Arial" } 
		.t17 { font-size: 24px;line-height: 29px;fill: #000000;font-family: "Times New Roman" } 
		.t18 { font-size: 24px;line-height: 30px;fill: #000000;font-family: "Times New Roman" } 
		.t19 { font-size: 20px;line-height: 30px;fill: #000000;font-family: "Times New Roman" } 
	</style>
	<g id="Page 1" clip-path="url(#cp1)">
		<text id="Образац број 8 " style="transform: matrix(1,0,0,1,113.28,74.8)" >
			<tspan x="0" y="0" class="t0">Образац број 8 
</tspan>
		</text>
		<text id="Босна и Херцеговина  РЕПУБЛИКА С" style="transform: matrix(1,0,0,1,113.28,88)" >
			<tspan x="0" y="16.7" class="t1">Босна и Херцеговина </tspan><tspan  y="16.7" class="t2">
</tspan>
			<tspan x="0" y="48.6" class="t2">РЕПУБЛИКА СРПСКА </tspan><tspan  y="48.6" class="t2">
</tspan>
			<tspan x="0" y="80.3" class="t2"> 
</tspan>
			<tspan x="0" y="111.9" class="t2">ШКОЛА: _________________________________ 
</tspan>
		</text>
		<text id=" " style="transform: matrix(1,0,0,1,679.68,200.08)" >
			<tspan x="0" y="0" class="t2"> 
</tspan>
		</text>
		<text id=" " style="transform: matrix(1,0,0,1,750.48,200.08)" >
			<tspan x="0" y="0" class="t2"> 
</tspan>
		</text>
		<text id="Школска _______/ _______ " style="transform: matrix(1,0,0,1,821.28,200.08)" >
			<tspan x="0" y="0" class="t2">Школска _______/ _______ 
</tspan>
		</text>
		<text id="МЈЕСТО: ________________________" style="transform: matrix(1,0,0,1,113.28,255.76)" >
			<tspan x="0" y="0" class="t2">МЈЕСТО: _________________________________
</tspan>
		</text>
		<text id="  " style="transform: matrix(1,0,0,1,615.36,255.76)" >
			<tspan x="0" y="0" class="t3">  
</tspan>
		</text>
		<text id=" " style="transform: matrix(1,0,0,1,113.276,308.09)" >
			<tspan x="0" y="0" class="t3"> 
</tspan>
		</text>
		<text id="ПРИЈАВА ЗА УПИС УЧЕНИКА У СРЕДЊУ" style="transform: matrix(1,0,0,1,295.44,350.56)" >
			<tspan x="0" y="0" class="t4">ПРИЈАВА ЗА УПИС УЧЕНИКА У СРЕДЊУ ШКОЛУ 
</tspan>
		</text>
		<text id="  Пријављујем се за упис у _____" style="transform: matrix(1,0,0,1,113.28,368.08)" >
			<tspan x="0" y="16.7" class="t2"> </tspan><tspan  y="16.7" class="t5">
</tspan>
			<tspan x="0" y="50.3" class="t5">Пријављујем се за упис у ___________ (    ) разред ________________________________________ 
</tspan>
		</text>
		<text id="1. Смјер гимназије _____________" style="transform: matrix(1,0,0,1,119.04,441.28)" >
			<tspan x="0" y="17.4" class="t5">1.</tspan><tspan  y="17.4" class="t6"> </tspan><tspan  y="17.4" class="t5">Смјер гимназије _______________________ </tspan><tspan  y="17.4" class="t7">
</tspan>
			<tspan x="0" y="57" class="t7">2.</tspan><tspan  y="57" class="t8"> </tspan><tspan  y="57" class="t7">Струка _______________________________, занимање _________________________________ 
</tspan>
			<tspan x="0" y="96.6" class="t7">3.</tspan><tspan  y="96.6" class="t8"> </tspan><tspan  y="96.6" class="t7">Струка _______________________________, занимање _________________________________ 
</tspan>
		</text>
		<text id="Напомена: Ученици који се уписуј" style="transform: matrix(1,0,0,1,113.28,559.336)" >
			<tspan x="0" y="13.9" class="t9">Напомена: Ученици који се уписују у први разред под бројем 1 уписују смјер гимназије, под редним бројевима 2 и 3 </tspan><tspan  y="13.9" class="t10">
</tspan>
			<tspan x="0" y="36.9" class="t10">уписују струке које постоје у школи, а које би одабрали ако не буду примљени за први, односо други избор
</tspan>
		</text>
		<text id=" " style="transform: matrix(1,0,0,1,1033.68,596.32)" >
			<tspan x="0" y="0" class="t11"> 
</tspan>
		</text>
		<path id="Path 14" class="s12" d="m101 316.2h2.9v3.2h-2.9zm0 0h2.9v2.8h-2.9zm2.9 0h1039.5v2.9h-1039.5zm1039.5 0h2.8v3.1h-2.8zm0 0h2.8v2.9h-2.8zm-1042.4 3.1h2.9v288h-2.9zm1042.4 0h2.8v288h-2.8z"/>
		<text id="Име и презиме ученика " style="transform: matrix(1,0,0,1,113.28,638.08)" >
			<tspan x="0" y="0" class="t11">Име и презиме ученика 
</tspan>
		</text>
		<text id=" " style="transform: matrix(1,0,0,1,677.04,638.08)" >
			<tspan x="0" y="0" class="t11"> 
</tspan>
		</text>
		<path id="Path 17" class="s12" d="m101 607.4h2.9v0.9h-2.9zm2.9 0h561.9v1h-561.9zm561.9 0h0.9v0.9h-0.9zm0.9 0h476.7v1h-476.7zm476.7 0h2.8v1h-2.8zm-1042.4 0.9h2.9v43.7h-2.9zm564.8 0h0.9v43.7h-0.9zm477.6 0h2.8v43.7h-2.8z"/>
		<text id="Дан, мјесец и година рођења " style="transform: matrix(1,0,0,1,113.28,682.72)" >
			<tspan x="0" y="0" class="t11">Дан, мјесец и година рођења 
</tspan>
		</text>
		<text id=" " style="transform: matrix(1,0,0,1,677.04,682.72)" >
			<tspan x="0" y="0" class="t11"> 
</tspan>
		</text>
		<path id="Path 20" class="s12" d="m101 652h2.9v1h-2.9zm2.9 0h561.9v0.9h-561.9zm561.9 0h0.9v1h-0.9zm0.9 0h476.7v0.9h-476.7zm476.7 0h2.8v1h-2.8zm-1042.4 1h2.9v43.6h-2.9zm564.8 0h0.9v43.7h-0.9zm477.6 0h2.8v43.7h-2.8z"/>
		<text id="Мјесто рођења, општина, републик" style="transform: matrix(1,0,0,1,113.28,727.36)" >
			<tspan x="0" y="0" class="t11">Мјесто рођења, општина, република и држава 
</tspan>
		</text>
		<text id=" " style="transform: matrix(1,0,0,1,677.04,727.36)" >
			<tspan x="0" y="0" class="t11"> 
</tspan>
		</text>
		<path id="Path 23" class="s12" d="m101 696.6h2.9v1h-2.9zm2.9 0h561.9v1h-561.9zm561.9 0h0.9v0.9h-0.9zm0.9 0h476.7v1h-476.7zm476.7 0h2.8v0.9h-2.8zm-1042.4 1h2.9v43.7h-2.9zm564.8 0h0.9v43.7h-0.9zm477.6 0h2.8v43.6h-2.8z"/>
		<text id="Име и презиме оца, адреса станов" style="transform: matrix(1,0,0,1,113.28,772)" >
			<tspan x="0" y="0" class="t11">Име и презиме оца, адреса становања и занимање 
</tspan>
		</text>
		<text id=" " style="transform: matrix(1,0,0,1,677.04,772)" >
			<tspan x="0" y="0" class="t11"> 
</tspan>
		</text>
		<path id="Path 26" class="s12" d="m101 741.3h2.9v0.9h-2.9zm2.9 0h561.9v1h-561.9zm561.9 0h0.9v1h-0.9zm0.9 0h476.7v0.9h-476.7zm476.7 0h2.8v1h-2.8zm-1042.4 0.9h2.9v43.5h-2.9zm564.8 0h0.9v43.4h-0.9zm477.6 0h2.8v43.5h-2.8z"/>
		<text id="Име и презиме мајке, адреса стан" style="transform: matrix(1,0,0,1,113.28,816.64)" >
			<tspan x="0" y="0" class="t11">Име и презиме мајке, адреса становања и занимање 
</tspan>
		</text>
		<text id=" " style="transform: matrix(1,0,0,1,677.04,816.64)" >
			<tspan x="0" y="0" class="t11"> 
</tspan>
		</text>
		<path id="Path 29" class="s12" d="m101 785.7h2.9v0.9h-2.9zm2.9 0h561.9v1h-561.9zm561.9 0h0.9v1h-0.9zm0.9 0h476.7v0.9h-476.7zm476.7 0h2.8v1h-2.8zm-1042.4 1h2.9v43.6h-2.9zm564.8 0h0.9v43.7h-0.9zm477.6 0h2.8v43.7h-2.8z"/>
		<g id="Mask" clip-path="url(#cp2)">
			<text id="Име и презиме старатеља, адреса " style="transform: matrix(1,0,0,1,113.28,836.08)" >
				<tspan x="0" y="16.7" class="t11">Име и презиме старатеља, адреса становања и </tspan><tspan  y="16.7" class="t13">
</tspan>
				<tspan x="0" y="44.3" class="t13">занимање (ако ученик нема родитеље) 
</tspan>
			</text>
		</g>
		<g id="Mask" clip-path="url(#cp3)">
			<text id=" " style="transform: matrix(1,0,0,1,677.04,852.88)" >
				<tspan x="0" y="0" class="t13"> 
</tspan>
			</text>
		</g>
		<path id="Path 36" class="s12" d="m101 830.3h2.9v1h-2.9zm2.9 0h561.9v0.9h-561.9zm561.9 0h0.9v1h-0.9zm0.9 0h476.7v1h-476.7zm476.7 0h2.8v0.9h-2.8zm-1042.4 1h2.9v55.2h-2.9zm564.8 0h0.9v55.2h-0.9zm477.6 0h2.8v55.2h-2.8z"/>
		<text id="Адреса становања ученика " style="transform: matrix(1,0,0,1,113.28,917.44)" >
			<tspan x="0" y="0" class="t13">Адреса становања ученика 
</tspan>
		</text>
		<text id=" " style="transform: matrix(1,0,0,1,677.04,917.44)" >
			<tspan x="0" y="0" class="t13"> 
</tspan>
		</text>
		<path id="Path 39" class="s12" d="m101 886.5h2.9v0.9h-2.9zm2.9 0h561.9v1h-561.9zm561.9 0h0.9v1h-0.9zm0.9 0h476.7v0.9h-476.7zm476.7 0h2.8v1h-2.8zm-1042.4 0.9h2.9v43.7h-2.9zm564.8 0h0.9v43.7h-0.9zm477.6 0h2.8v43.7h-2.8z"/>
		<text id="Документ на основу кога  се врши" style="transform: matrix(1,0,0,1,113.28,976)" >
			<tspan x="0" y="16.7" class="t13">Документ на основу кога </tspan><tspan  y="16.7" class="t13">
</tspan>
			<tspan x="0" y="44.3" class="t13">се врши упис 
</tspan>
		</text>
		<text id="назив школе " style="transform: matrix(1,0,0,1,395.28,961.84)" >
			<tspan x="0" y="0" class="t13">назив школе 
</tspan>
		</text>
		<text id=" " style="transform: matrix(1,0,0,1,677.04,961.84)" >
			<tspan x="0" y="0" class="t13"> 
</tspan>
		</text>
		<path id="Path 43" class="s12" d="m101 931.1h2.9v1h-2.9zm2.9 0h279.9v0.9h-279.9zm279.9 0h0.9v1h-0.9zm0.9 0h281.1v1h-281.1zm281.1 0h0.9v0.9h-0.9zm0.9 0h476.7v1h-476.7zm476.7 0h2.8v1h-2.8zm-1042.4 0.9h2.9v43.7h-2.9zm282.8 0h0.9v43.7h-0.9zm282 0h0.9v43.7h-0.9zm477.6 0h2.8v43.6h-2.8z"/>
		<text id="дјеловодни број " style="transform: matrix(1,0,0,1,395.28,1006.48)" >
			<tspan x="0" y="0" class="t13">дјеловодни број 
</tspan>
		</text>
		<text id=" " style="transform: matrix(1,0,0,1,677.04,1006.48)" >
			<tspan x="0" y="0" class="t13"> 
</tspan>
		</text>
		<path id="Path 46" class="s12" d="m101 975.8h2.9v0.9h-2.9zm282.8 0h0.9v1h-0.9zm0.9 0h281.1v0.9h-281.1zm281.1 0h0.9v1h-0.9zm0.9 0h476.7v1h-476.7zm476.7 0h2.8v0.9h-2.8zm-1042.4 1h2.9v43.7h-2.9zm282.8 0h0.9v43.7h-0.9zm282 0h0.9v43.6h-0.9zm477.6 0h2.8v43.7h-2.8z"/>
		<text id="датум и мјесто издавања " style="transform: matrix(1,0,0,1,395.28,1051.12)" >
			<tspan x="0" y="0" class="t13">датум и мјесто издавања 
</tspan>
		</text>
		<text id=" " style="transform: matrix(1,0,0,1,677.04,1051.12)" >
			<tspan x="0" y="0" class="t13"> 
</tspan>
		</text>
		<path id="Path 49" class="s12" d="m101 1020.4h2.9v1h-2.9zm282.8 0h0.9v0.9h-0.9zm0.9 0h281.1v1h-281.1zm281.1 0h0.9v0.9h-0.9zm0.9 0h476.7v1h-476.7zm476.7 0h2.8v1h-2.8zm-1042.4 0.9h2.9v43.7h-2.9zm282.8 0h0.9v43.7h-0.9zm282 0h0.9v43.7h-0.9zm477.6 0h2.8v43.6h-2.8z"/>
		<text id="Који страни језик си учио у прет" style="transform: matrix(1,0,0,1,113.28,1131.28)" >
			<tspan x="0" y="0" class="t13">Који страни језик си учио у претходним разредима 
</tspan>
		</text>
		<text id="а) (од III разр. ОШ)____________" style="transform: matrix(1,0,0,1,677.04,1078.96)" >
			<tspan x="0" y="16.7" class="t13">а) (од III разр. ОШ)_____________________ </tspan><tspan  y="16.7" class="t14">
</tspan>
			<tspan x="0" y="52.4" class="t14">б) (од </tspan><tspan  y="52.4" class="t14" dx="0 0 0" >VI </tspan><tspan  y="52.4" class="t14">разр. ОШ)_____________________ </tspan><tspan  y="52.4" class="t14">
</tspan>
			<tspan x="0" y="88.2" class="t14">в) </tspan><tspan  y="88.2" class="t14" dx="0 0" >у </tspan><tspan  y="88.2" class="t14">претходном разреду_________________ 
</tspan>
		</text>
		<path id="Path 52" class="s12" d="m101 1065h2.9v1h-2.9zm2.9 0h279.9v1h-279.9zm279.9 0h0.9v0.9h-0.9zm0.9 0h281.1v1h-281.1zm281.1 0h0.9v0.9h-0.9zm0.9 0h476.7v1h-476.7zm476.7 0h2.8v1h-2.8zm-1042.4 0.9h2.9v114.8h-2.9zm564.8 0h0.9v114.7h-0.9zm477.6 0h2.8v114.7h-2.8z"/>
		<text id="Који страни језик желиш да наста" style="transform: matrix(1,0,0,1,113.28,1211.44)" >
			<tspan x="0" y="0" class="t14">Који страни језик желиш да наставиш да учиш? 
</tspan>
		</text>
		<text id=" " style="transform: matrix(1,0,0,1,677.04,1211.44)" >
			<tspan x="0" y="0" class="t14"> 
</tspan>
		</text>
		<path id="Path 55" class="s12" d="m101 1180.7h2.9v1h-2.9zm2.9 0h561.9v0.9h-561.9zm561.9 0h0.9v1h-0.9zm0.9 0h476.7v1h-476.7zm476.7 0h2.8v0.9h-2.8zm-1042.4 1h2.9v43.7h-2.9zm564.8 0h0.9v43.6h-0.9zm477.6 0h2.8v43.7h-2.8z"/>
		<text id="Да ли желиш да изучаваш вјеронау" style="transform: matrix(1,0,0,1,113.28,1256.08)" >
			<tspan x="0" y="0" class="t14">Да ли желиш да изучаваш вјеронауку? 
</tspan>
		</text>
		<text id=" " style="transform: matrix(1,0,0,1,677.04,1256.08)" >
			<tspan x="0" y="0" class="t14"> 
</tspan>
		</text>
		<path id="Path 58" class="s12" d="m101 1225.4h2.9v0.9h-2.9zm2.9 0h561.9v1h-561.9zm561.9 0h0.9v0.9h-0.9zm0.9 0h476.7v1h-476.7zm476.7 0h2.8v1h-2.8zm-1042.4 0.9h2.9v43.7h-2.9zm564.8 0h0.9v43.7h-0.9zm477.6 0h2.8v43.7h-2.8z"/>
		<text id="Прилози уз пријаву: " style="transform: matrix(1,0,0,1,113.28,1299.04)" >
			<tspan x="0" y="0" class="t15">Прилози уз пријаву: 
</tspan>
		</text>
		<text id="1. " style="transform: matrix(1,0,0,1,149.292,1332.16)" >
			<tspan x="0" y="0" class="t15">1.</tspan><tspan  y="0" class="t16"> 
</tspan>
		</text>
		<text id="Оригинално свједочанство о заврш" style="transform: matrix(1,0,0,1,185.283,1332.16)" >
			<tspan x="0" y="0" class="t15">Оригинално свједочанство о завршеној основној школи, односно о зарвршеном претхдном разреду,  
</tspan>
		</text>
		<text id="2. " style="transform: matrix(1,0,0,1,149.27,1357.353)" >
			<tspan x="0" y="0" class="t15">2.</tspan><tspan  y="0" class="t16"> 
</tspan>
		</text>
		<text id="Оригинални извод из матичне књиг" style="transform: matrix(1,0,0,1,185.261,1357.353)" >
			<tspan x="0" y="0" class="t15">Оригинални извод из матичне књиге рођених и  
</tspan>
		</text>
		<text id="3. " style="transform: matrix(1,0,0,1,149.27,1382.789)" >
			<tspan x="0" y="0" class="t15">3.</tspan><tspan  y="0" class="t16"> 
</tspan>
		</text>
		<text id="Диплому  и друге доказе о посебн" style="transform: matrix(1,0,0,1,185.261,1382.789)" >
			<tspan x="0" y="0" class="t15">Диплому  и друге доказе о посебним достигнућима 
</tspan>
		</text>
		<path id="Path 66" class="s12" d="m101 1270h2.9v1h-2.9zm2.9 0h561.9v0.9h-561.9zm561.9 0h0.9v1h-0.9zm0.9 0h476.7v0.9h-476.7zm476.7 0h2.8v1h-2.8zm-1042.4 1h2.9v125.2h-2.9zm1042.4 0h2.8v125.3h-2.8z"/>
		<g id="Mask" clip-path="url(#cp4)">
			<text id="Напомена:        У _____________" style="transform: matrix(1,0,0,1,113.28,1402)" >
				<tspan x="0" y="16.7" class="t14">Напомена: </tspan><tspan  y="16.7" class="t13">
</tspan>
				<tspan x="0" y="44.3" class="t13"> 
</tspan>
				<tspan x="0" y="73.1" class="t13"> </tspan><tspan  y="73.1" class="t17">
</tspan>
				<tspan x="0" y="102.6" class="t17"> </tspan><tspan  y="102.6" class="t18">
</tspan>
				<tspan x="0" y="132.1" class="t18">У ____________________________, ________20___.год.                            Потпис ученика-це  
</tspan>
			</text>
		</g>
		<g id="Mask" clip-path="url(#cp5)">
		</g>
		<path id="Path 72" class="s12" d="m101 1396.2h2.9v1h-2.9zm2.9 0h1039.5v1h-1039.5zm1039.5 0h2.8v0.9h-2.8zm-1042.4 1h2.9v82.8h-2.9zm1042.4 0h2.8v82.8h-2.8z"/>
		<g id="Mask" clip-path="url(#cp6)">
		</g>
		<text id="                                " style="transform: matrix(1,0,0,1,113.28,1562.08)" >
			<tspan x="0" y="0" class="t18">                                                                                                                      ________________________   
</tspan>
		</text>
		<g id="Mask" clip-path="url(#cp7)">
			<text id=" " style="transform: matrix(1,0,0,1,113.28,1591.6)" >
				<tspan x="0" y="0" class="t18"> 
</tspan>
			</text>
		</g>
		<path id="Path 79" class="s12" d="m101 1480h2.9v1h-2.9zm2.9 0h1039.5v0.9h-1039.5zm1039.5 0h2.8v1h-2.8zm-1042.4 0.9h2.9v118.4h-2.9zm0 118.3h2.9v2.9h-2.9zm0 0h2.9v2.8h-2.9zm2.9 0h1039.5v2.9h-1039.5zm1039.5-118.3h2.8v118.3h-2.8zm0 118.3h2.8v2.9h-2.8zm0 0h2.8v2.9h-2.8z"/>
		<text id=" " style="transform: matrix(1,0,0,1,113.28,1620.64)" >
			<tspan x="0" y="0" class="t19"> 
</tspan>
		</text>
	</g>
</svg>